# xmcd CD database file
#
# Track frame offsets:
#	150
#	12046
#	25919
#	42043
#	59839
#	75090
#	89722
#	104065
#	117781
#	133219
#	151325
#	172534
#
# Disc length: 2580 seconds
#
# Revision: 0
# Processed by: cddbd v1.4PL0 Copyright (c) Steve Scherf et al.
# Submitted via: CDex 1.50beta10
#
DISCID=8e0a120c
DTITLE=Phil Coulter 5 - The Emotional Tide
DYEAR=2001
DGENRE=New Age
TTITLE0=Maggie
TTITLE1=If I Were A Blackbird
TTITLE2=The Gentle Maiden
TTITLE3=Dear Little Town In The Old County Down
TTITLE4=Lament For The Wild Geese
TTITLE5=The Lark In The Clear Air
TTITLE6=The Meeting Of The Waters - The Rose Of Mooncoin
TTITLE7=The Water Babies
TTITLE8=Natasha
TTITLE9=Mna Na Heireann
TTITLE10=Raglan Road
TTITLE11=The Year Of The French
EXTD=YEAR: 2001
EXTT0=
EXTT1=
EXTT2=
EXTT3=
EXTT4=
EXTT5=
EXTT6=
EXTT7=
EXTT8=
EXTT9=
EXTT10=
EXTT11=
PLAYORDER=
